<svg version="1.1" id="Layer_1" xmlns="http://www.w3.org/2000/svg" xmlns:xlink="http://www.w3.org/1999/xlink" x="0px" y="0px"
	 width="200px" height="175px" viewBox="0 0 200 175" enable-background="new 0 0 200 175" xml:space="preserve">
<g>
	<path fill="#FFFFFF" stroke="#FFFFFF" stroke-miterlimit="10" d="M29.169,27.143c-37.231,34.97-39.065,93.501-4.096,130.732
		L159.9,31.238C124.934-5.994,66.4-7.827,29.169,27.143z"/>
	<path fill="#FFFFFF" stroke="#FFFFFF" stroke-miterlimit="10" d="M170.83,147.857c37.23-34.969,39.066-93.5,4.097-130.731
		L40.099,143.762C75.068,180.993,133.6,182.827,170.83,147.857z"/>
	<g>
		<path fill="#231F20" d="M46.544,67.687c0-1.148,0.074-2.204,0.223-3.167c0.147-0.962,0.425-1.814,0.833-2.556
			c0.666-1.222,1.629-2.203,2.889-2.944c1.258-0.74,2.759-1.111,4.5-1.111c1.74,0,3.24,0.371,4.5,1.111
			c1.258,0.742,2.222,1.722,2.889,2.944c0.408,0.741,0.685,1.593,0.833,2.556c0.147,0.963,0.222,2.019,0.222,3.167v9.277
			c0,1.148-0.075,2.204-0.222,3.166c-0.148,0.964-0.426,1.816-0.833,2.555c-0.667,1.224-1.63,2.205-2.889,2.945
			c-1.26,0.741-2.76,1.111-4.5,1.111c-1.741,0-3.242-0.37-4.5-1.111c-1.26-0.741-2.223-1.722-2.889-2.945
			c-0.408-0.739-0.686-1.591-0.833-2.555c-0.149-0.962-0.223-2.018-0.223-3.166V67.687z M52.211,77.853
			c0,1.075,0.25,1.88,0.75,2.417c0.5,0.538,1.175,0.806,2.028,0.806c0.851,0,1.528-0.268,2.028-0.806
			c0.5-0.537,0.75-1.342,0.75-2.417V66.798c0-1.074-0.25-1.879-0.75-2.417c-0.5-0.537-1.177-0.806-2.028-0.806
			c-0.853,0-1.528,0.269-2.028,0.806s-0.75,1.343-0.75,2.417V77.853z"/>
		<path fill="#231F20" d="M68.71,58.242h5.667v2.555c0.703-0.814,1.426-1.5,2.167-2.055c0.741-0.555,1.814-0.833,3.223-0.833
			c2.333,0,3.981,0.889,4.944,2.667c0.333,0.63,0.574,1.408,0.723,2.333c0.147,0.926,0.222,2.167,0.222,3.722v10.723
			c0,2.038-0.056,3.537-0.167,4.499c-0.111,0.964-0.353,1.742-0.722,2.333c-0.482,0.741-1.103,1.353-1.861,1.834
			c-0.759,0.481-1.824,0.722-3.194,0.722c-1.111,0-2.103-0.25-2.973-0.75c-0.87-0.5-1.62-1.212-2.25-2.139h-0.111v13.944H68.71
			V58.242z M79.988,67.409c0-1.147-0.222-2.074-0.667-2.777c-0.444-0.704-1.148-1.056-2.11-1.056c-0.854,0-1.538,0.325-2.056,0.972
			c-0.52,0.648-0.778,1.491-0.778,2.527V78.02c0,0.888,0.268,1.62,0.806,2.194c0.536,0.574,1.212,0.861,2.028,0.861
			c1.073,0,1.805-0.333,2.194-1c0.389-0.667,0.583-1.444,0.583-2.333V67.409z"/>
		<path fill="#231F20" d="M110.82,83.853c-0.371,0.408-0.723,0.787-1.057,1.139c-0.332,0.352-0.703,0.657-1.111,0.917
			c-0.406,0.259-0.869,0.463-1.387,0.611c-0.521,0.148-1.133,0.222-1.834,0.222c-2.334,0-3.981-0.889-4.945-2.667
			c-0.333-0.629-0.575-1.407-0.723-2.333c-0.149-0.925-0.222-2.166-0.222-3.722V67.298c0-2.037,0.056-3.537,0.167-4.5
			c0.11-0.962,0.351-1.741,0.722-2.333c0.48-0.74,1.102-1.352,1.861-1.833c0.758-0.481,1.823-0.722,3.192-0.722
			c1.113,0,2.104,0.25,2.974,0.75c0.869,0.5,1.62,1.213,2.25,2.138h0.11V46.853h5.666v39.556h-5.666v-2.556H110.82z M105.21,77.242
			c0,1.148,0.224,2.074,0.666,2.778c0.444,0.704,1.147,1.055,2.112,1.055c0.85,0,1.535-0.324,2.055-0.972s0.777-1.491,0.777-2.528
			V66.631c0-0.889-0.27-1.62-0.807-2.194c-0.537-0.574-1.213-0.861-2.025-0.861c-1.076,0-1.809,0.333-2.196,1
			c-0.39,0.667-0.582,1.444-0.582,2.333V77.242z"/>
		<path fill="#231F20" d="M127.432,74.464v3.833c0,0.889,0.25,1.575,0.75,2.056s1.174,0.722,2.026,0.722
			c1.074,0,1.787-0.314,2.14-0.945c0.352-0.628,0.563-1.258,0.639-1.888h5.666c0,1.185-0.194,2.296-0.584,3.333
			c-0.387,1.037-0.952,1.926-1.692,2.667c-0.741,0.777-1.631,1.389-2.667,1.833c-1.037,0.444-2.204,0.667-3.5,0.667
			c-1.741,0-3.241-0.37-4.499-1.111c-1.261-0.741-2.224-1.722-2.892-2.945c-0.406-0.739-0.685-1.591-0.832-2.555
			c-0.147-0.962-0.223-2.018-0.223-3.166v-9.277c0-1.148,0.074-2.204,0.223-3.167c0.147-0.962,0.426-1.814,0.832-2.556
			c0.668-1.222,1.631-2.203,2.892-2.944c1.258-0.74,2.758-1.111,4.499-1.111c1.296,0,2.473,0.222,3.527,0.667
			c1.057,0.445,1.945,1.065,2.668,1.862c0.722,0.796,1.277,1.731,1.664,2.805c0.39,1.074,0.584,2.222,0.584,3.444v7.777
			L127.432,74.464L127.432,74.464z M127.432,70.02h5.555v-3.222c0-1.074-0.25-1.879-0.75-2.417c-0.5-0.537-1.176-0.806-2.027-0.806
			c-0.854,0-1.527,0.269-2.025,0.806c-0.502,0.537-0.752,1.343-0.752,2.417V70.02L127.432,70.02z"/>
	</g>
	<g>
		<path fill="#231F20" d="M57.213,125.646h-5L44.88,97.479h6l3.778,18h0.111l3.778-18h6L57.213,125.646z"/>
		<path fill="#231F20" d="M68.713,86.089h5.667v31.612c0,1.074,0.195,1.804,0.583,2.193c0.389,0.39,1.12,0.64,2.194,0.75v5.332
			c-1.297,0-2.472-0.103-3.528-0.305c-1.055-0.203-1.944-0.593-2.666-1.167c-0.723-0.573-1.278-1.38-1.667-2.416
			c-0.389-1.036-0.583-2.371-0.583-4.001V86.089z"/>
		<path fill="#231F20" d="M98.545,125.646h-5.667v-2.725h-0.111c-0.593,0.891-1.306,1.621-2.139,2.195
			c-0.833,0.572-1.898,0.859-3.194,0.859c-0.704,0-1.408-0.119-2.112-0.359c-0.704-0.24-1.333-0.639-1.888-1.195
			c-0.556-0.555-1-1.268-1.333-2.139c-0.333-0.869-0.5-1.936-0.5-3.194v-21.61h5.667v19.5c0,1.037,0.24,1.854,0.722,2.444
			c0.481,0.593,1.167,0.89,2.056,0.89c1.074,0,1.814-0.334,2.222-1c0.407-0.668,0.611-1.629,0.611-2.891V97.479h5.667
			L98.545,125.646L98.545,125.646z"/>
		<path fill="#231F20" d="M111.436,117.533c0,0.891,0.25,1.574,0.748,2.056c0.502,0.481,1.176,0.724,2.028,0.724
			c1.073,0,1.786-0.314,2.14-0.944c0.353-0.63,0.563-1.259,0.64-1.888h5.665c0,1.186-0.193,2.295-0.582,3.332
			s-0.955,1.927-1.694,2.666c-0.741,0.777-1.63,1.39-2.666,1.834c-1.038,0.443-2.205,0.666-3.501,0.666c-1.74,0-3.24-0.369-4.5-1.11
			c-1.26-0.74-2.223-1.724-2.889-2.945c-0.408-0.739-0.688-1.591-0.834-2.555c-0.148-0.962-0.223-2.019-0.223-3.167v-9.277
			c0-1.148,0.073-2.203,0.223-3.165c0.146-0.964,0.426-1.815,0.834-2.557c0.666-1.224,1.629-2.203,2.889-2.945
			c1.26-0.739,2.76-1.11,4.5-1.11c1.296,0,2.473,0.223,3.527,0.668c1.056,0.442,1.945,1.063,2.668,1.86
			c0.721,0.796,1.277,1.749,1.666,2.86s0.582,2.314,0.582,3.609h-5.665c0-1.146-0.251-1.988-0.751-2.525
			c-0.5-0.538-1.176-0.807-2.027-0.807c-0.854,0-1.527,0.269-2.027,0.807c-0.5,0.537-0.75,1.342-0.75,2.416V117.533L111.436,117.533
			z"/>
		<path fill="#231F20" d="M127.545,86.089h5.666v14.113h0.111c0.593-0.892,1.306-1.621,2.14-2.196
			c0.832-0.572,1.897-0.859,3.192-0.859c0.705,0,1.408,0.121,2.113,0.361c0.701,0.239,1.332,0.639,1.887,1.193
			c0.557,0.554,1,1.27,1.334,2.14s0.5,1.935,0.5,3.193v21.61h-5.666v-19.5c0-1.037-0.242-1.852-0.723-2.444
			c-0.481-0.593-1.168-0.888-2.056-0.888c-1.075,0-1.815,0.332-2.224,0.998c-0.406,0.668-0.61,1.631-0.61,2.891v18.943h-5.666
			L127.545,86.089L127.545,86.089z"/>
		<path fill="#231F20" d="M151.378,88.923h5.666v8.556h3.5v4.445h-3.5v15.609c0,0.667,0.063,1.188,0.195,1.556
			c0.129,0.371,0.331,0.647,0.608,0.833c0.279,0.188,0.639,0.297,1.084,0.334c0.444,0.038,0.981,0.057,1.611,0.057v5.334h-2.334
			c-1.297,0-2.379-0.205-3.249-0.612c-0.871-0.407-1.565-0.925-2.084-1.556c-0.521-0.629-0.897-1.342-1.14-2.14
			c-0.24-0.795-0.359-1.563-0.359-2.305v-17.11h-2.835v-4.445h2.835L151.378,88.923L151.378,88.923z"/>
	</g>
</g>
</svg>
